<svg width="59" height="35" viewBox="0 0 59 35" fill="none" xmlns="http://www.w3.org/2000/svg">
<path d="M25.7314 7.90159C26.2676 7.30513 27.1082 7.08664 27.8669 7.34653L47.3364 14.0154C49.2121 14.6579 49.1103 17.3444 47.1915 17.8432L13.964 26.4797C12.0451 26.9784 10.6481 24.6815 11.9735 23.207L25.7314 7.90159Z" fill="#864879"/>
<path d="M4.304 24.964C3.984 24.964 3.712 24.912 3.488 24.808C3.264 24.696 3.08 24.52 2.936 24.28C2.648 23.816 2.504 23.008 2.504 21.856C2.504 20.696 2.648 19.892 2.936 19.444C3.08 19.22 3.264 19.056 3.488 18.952C3.712 18.848 3.984 18.796 4.304 18.796C4.576 18.796 4.808 18.82 5 18.868C5.192 18.916 5.368 19.004 5.528 19.132V20.644H5.396C5.22 20.644 5.092 20.656 5.012 20.68C4.94 20.696 4.884 20.736 4.844 20.8C4.804 20.888 4.78 21.012 4.772 21.172C4.764 21.284 4.76 21.52 4.76 21.88C4.76 22.24 4.764 22.476 4.772 22.588C4.78 22.756 4.804 22.88 4.844 22.96C4.884 23.032 4.948 23.076 5.036 23.092C5.148 23.108 5.268 23.116 5.396 23.116H5.528V24.64C5.368 24.768 5.196 24.856 5.012 24.904C4.828 24.944 4.592 24.964 4.304 24.964ZM5.108 27.472C4.708 27.472 4.228 27.448 3.668 27.4L2.948 27.328V25.78H4.556C4.844 25.78 5.124 25.772 5.396 25.756C5.596 25.74 5.74 25.7 5.828 25.636C5.924 25.58 5.984 25.48 6.008 25.336C6.024 25.144 6.032 24.94 6.032 24.724V18.88H8.252V24.328C8.252 24.952 8.224 25.44 8.168 25.792C8.112 26.152 7.992 26.452 7.808 26.692C7.6 26.956 7.28 27.152 6.848 27.28C6.424 27.408 5.844 27.472 5.108 27.472ZM12.1535 21.34H12.9935C12.9935 20.892 12.9495 20.604 12.8615 20.476C12.8135 20.404 12.7495 20.36 12.6695 20.344C12.5895 20.32 12.4735 20.308 12.3215 20.308H12.1535V18.784H12.3215C13.0095 18.784 13.5375 18.84 13.9055 18.952C14.2815 19.064 14.5575 19.248 14.7335 19.504C14.8935 19.728 14.9895 20.016 15.0215 20.368C15.0615 20.72 15.0815 21.248 15.0815 21.952V22.432H12.1535V21.34ZM12.5615 25.096C11.8255 25.096 11.2455 25.036 10.8215 24.916C10.4055 24.788 10.0935 24.588 9.8855 24.316C9.7015 24.076 9.5815 23.78 9.5255 23.428C9.4695 23.068 9.4415 22.576 9.4415 21.952C9.4415 21.376 9.4615 20.92 9.5015 20.584C9.5415 20.24 9.6255 19.948 9.7535 19.708C9.8975 19.444 10.1175 19.24 10.4135 19.096C10.7175 18.944 11.1295 18.848 11.6495 18.808V22.432C11.6495 22.704 11.6615 22.9 11.6855 23.02C11.7095 23.132 11.7655 23.216 11.8535 23.272C11.9495 23.336 12.0975 23.372 12.2975 23.38C12.5535 23.396 12.8255 23.404 13.1135 23.404C13.6255 23.404 13.9975 23.392 14.2295 23.368L14.8415 23.32V24.868C14.5215 24.964 14.0815 25.028 13.5215 25.06C13.2495 25.084 12.9295 25.096 12.5615 25.096ZM15.7746 18.88H16.9026V17.104H19.1226V18.88H20.4666V20.572H15.7746V18.88ZM16.9026 21.052H19.1226V25H16.9026V21.052ZM24.5769 16.744H26.9769V25H24.5769V16.744ZM27.4809 16.744H30.2889V18.58H27.4809V16.744ZM27.4809 20.152H29.8449V21.988H27.4809V20.152ZM31.4909 16.744H33.8909V25H31.4909V16.744ZM34.7799 16.744H41.5359V18.664H34.7799V16.744ZM36.9519 19.144H39.3519V25H36.9519V19.144Z" fill="white"/>
</svg>
